<?xml version="1.0" encoding="UTF-8"?>
<svg width="192" height="192" viewBox="0 0 192 192" xmlns="http://www.w3.org/2000/svg">
  <!-- Background -->
  <rect width="192" height="192" rx="38.400000000000006" fill="#15132B"/>
  <!-- Flame shape -->
  <g transform="translate(96, 96)">
    <path
      d="M0 -57.599999999999994 C9.600000000000001 -28.799999999999997 -28.799999999999997 -15.36 -23.04 7.68 C-23.04 23.04 -38.400000000000006 30.72 -23.04 42.24 A32.64 32.64 0 0 0 23.04 42.24 C38.400000000000006 30.72 23.04 23.04 23.04 7.68 C28.799999999999997 -15.36 -9.600000000000001 -28.799999999999997 0 -57.599999999999994Z"
      fill="#FBBF24"
    />
    <!-- Inner flame -->
    <path
      d="M0 -23.04 C3.84 -7.68 -11.52 0 -7.68 15.36 C-7.68 26.880000000000003 7.68 30.72 7.68 15.36 C11.52 0 -3.84 -7.68 0 -23.04Z"
      fill="#FDE68A" opacity="0.8"
    />
  </g>
</svg>